<mxfile host="app.diagrams.net" modified="2023-05-03T02:39:16.599Z" agent="Mozilla/5.0 (X11; Linux x86_64) AppleWebKit/537.36 (KHTML, like Gecko) Chrome/112.0.0.0 Safari/537.36" version="21.2.6" etag="bn_fRQ0WVfA9RPxFQbUO" type="github">
  <diagram name="Page-1" id="fKp4fkNhiGJXipNas2cf">
    <mxGraphModel>
      <root>
        <mxCell id="0" />
        <mxCell id="1" parent="0" />
      </root>
    </mxGraphModel>
  </diagram>
</mxfile>
